<svg width="35" height="35" viewBox="0 0 35 35" fill="none" xmlns="http://www.w3.org/2000/svg">
<path d="M10.2609 1.81104L13.5422 9.18304C13.6823 9.49786 13.712 9.84805 13.6269 10.1806C13.5418 10.5131 13.3465 10.8099 13.0705 11.026L8.92789 14.2908C11.4369 19.4145 15.7193 23.5379 21.0407 25.9537L24.4314 21.9649C24.6562 21.6997 24.9645 21.5121 25.3097 21.4301C25.6549 21.3482 26.0184 21.3765 26.3455 21.5107M10.2609 1.81104C10.1072 1.47167 9.83529 1.19459 9.4921 1.02757C9.14892 0.860546 8.75597 0.81406 8.381 0.896122M10.2609 1.81104L9.80547 2.01736L13.0854 9.38629L13.5394 9.18428L13.0854 9.38636C13.1799 9.59873 13.1996 9.83362 13.1425 10.0566C13.0854 10.2799 12.9534 10.4827 12.7623 10.6324L12.7611 10.6333L8.6184 13.8981L8.30125 14.148L8.47884 14.5107C11.0402 19.7413 15.4098 23.9465 20.834 26.409L21.1774 26.5649L21.4217 26.2775L24.8123 22.2887L24.8127 22.2883C24.9671 22.1062 25.1814 21.9745 25.4251 21.9166C25.6689 21.8588 25.9256 21.8789 26.1555 21.9732L26.1548 21.9729L26.3455 21.5107M10.2609 1.81104L9.80413 2.01436L9.80485 2.016C9.70038 1.78622 9.51397 1.59428 9.2733 1.47715C9.03206 1.35974 8.75417 1.32645 8.48858 1.38441L8.48946 1.38422L8.381 0.896122M8.381 0.896122L1.27151 2.47584C0.909995 2.55622 0.587453 2.75221 0.356524 3.03182C0.125596 3.31143 -8.32775e-05 3.65815 0 4.0154C0 20.8986 14.2122 34.5565 31.7193 34.5565C32.0904 34.5568 32.4507 34.4358 32.7412 34.2135C33.0318 33.9911 33.2354 33.6805 33.3189 33.3323M8.381 0.896122L8.4879 1.38456L1.38003 2.96392L1.27162 2.47633L1.37996 2.96393C1.12463 3.02072 0.900474 3.15838 0.742043 3.35021C0.58392 3.54167 0.499944 3.77619 0.5 4.01528L0.5 4.0154C0.5 20.6045 14.47 34.0565 31.7193 34.0565H31.7196C31.9825 34.0567 32.2355 33.9709 32.4374 33.8164C32.6389 33.6622 32.7766 33.4496 32.8327 33.2156M33.3189 33.3323L34.9596 26.4868M33.3189 33.3323L32.8327 33.2157L32.8327 33.2156M33.3189 33.3323L32.8327 33.2156M34.9596 26.4868C35.0443 26.124 34.995 25.7442 34.8202 25.4126C34.6454 25.081 34.356 24.8185 34.0019 24.6702M34.9596 26.4868L34.4727 26.3732L32.8327 33.2156M34.9596 26.4868L34.4734 26.3703L34.473 26.3718C34.5297 26.1275 34.4967 25.8712 34.3779 25.6458C34.2587 25.4198 34.0592 25.2365 33.8097 25.1318L33.8111 25.1324L34.0019 24.6702M34.0019 24.6702L26.3455 21.5107M34.0019 24.6702L33.8087 25.1313L26.1557 21.9733L26.3455 21.5107" fill="#D9D9D9" stroke="#0A4175"/>
</svg>
