<svg width="36" height="34" viewBox="0 0 36 34" fill="none" xmlns="http://www.w3.org/2000/svg">
<path d="M12.4014 14.4913H23.3389C23.9432 14.4913 24.4326 14.0201 24.4326 13.4382V12.3851C24.4326 11.8033 23.9432 11.332 23.3389 11.332H12.4014C11.7971 11.332 11.3076 11.8033 11.3076 12.3851V13.4382C11.3076 14.0201 11.7971 14.4913 12.4014 14.4913ZM11.3076 19.7569C11.3076 20.3388 11.7971 20.81 12.4014 20.81H23.3389C23.9432 20.81 24.4326 20.3388 24.4326 19.7569V18.7038C24.4326 18.122 23.9432 17.6507 23.3389 17.6507H12.4014C11.7971 17.6507 11.3076 18.122 11.3076 18.7038V19.7569ZM17.8701 27.7297C16.7477 27.7297 15.6252 27.3966 14.6668 26.7299L0.370117 16.7858V30.8147C0.370117 32.5595 1.83916 33.974 3.65137 33.974H32.0889C33.9011 33.974 35.3701 32.5595 35.3701 30.8147V16.7858L21.0734 26.7299C20.115 27.396 18.9926 27.7297 17.8701 27.7297ZM34.113 10.9996C33.508 10.5428 32.9345 10.113 32.0889 9.49825V6.59296C32.0889 4.84807 30.6198 3.4336 28.8076 3.4336H23.5063C23.2985 3.2888 23.1051 3.15321 22.8884 3.00183C21.7393 2.19422 19.4561 0.251214 17.8701 0.274251C16.2842 0.251214 14.0017 2.19422 12.8519 3.00183C12.6352 3.15321 12.4417 3.2888 12.2339 3.4336H6.93262C5.12041 3.4336 3.65137 4.84807 3.65137 6.59296V9.49825C2.80576 10.1123 2.23223 10.5428 1.62725 10.9996C1.23566 11.2951 0.918985 11.6724 0.701191 12.1031C0.483397 12.5338 0.370185 13.0066 0.370117 13.4856L0.370117 14.1866L6.93262 18.7512V6.59296H28.8076V18.7512L35.3701 14.1866V13.4856C35.3701 12.5154 34.9066 11.5986 34.113 10.9996Z" fill="#D9D9D9"/>
</svg>
