<svg width="36" height="35" viewBox="0 0 36 35" fill="none" xmlns="http://www.w3.org/2000/svg">
<path d="M16.0716 33.8775C2.82832 20.0132 0.370117 18.5902 0.370117 13.4949C0.370117 6.5154 8.2051 0.857422 17.8701 0.857422C27.5351 0.857422 35.3701 6.5154 35.3701 13.4949C35.3701 18.5902 32.9119 20.0132 19.6686 33.8775C18.7995 34.7841 16.9406 34.784 16.0716 33.8775ZM17.8701 18.7605C21.8972 18.7605 25.1618 16.403 25.1618 13.4949C25.1618 10.5868 21.8972 8.22929 17.8701 8.22929C13.843 8.22929 10.5785 10.5868 10.5785 13.4949C10.5785 16.403 13.843 18.7605 17.8701 18.7605Z" fill="#D9D9D9"/>
</svg>
