<svg width="35" height="34" viewBox="0 0 35 34" fill="none" xmlns="http://www.w3.org/2000/svg">
<path d="M12.0313 14.2173H22.9688C23.573 14.2173 24.0625 13.746 24.0625 13.1642V12.1111C24.0625 11.5292 23.573 11.0579 22.9688 11.0579H12.0313C11.427 11.0579 10.9375 11.5292 10.9375 12.1111V13.1642C10.9375 13.746 11.427 14.2173 12.0313 14.2173ZM10.9375 19.4829C10.9375 20.0647 11.427 20.536 12.0313 20.536H22.9688C23.573 20.536 24.0625 20.0647 24.0625 19.4829V18.4298C24.0625 17.8479 23.573 17.3766 22.9688 17.3766H12.0313C11.427 17.3766 10.9375 17.8479 10.9375 18.4298V19.4829ZM17.5 27.4556C16.3775 27.4556 15.2551 27.1226 14.2967 26.4558L0 16.5118V30.5406C0 32.2855 1.46904 33.7 3.28125 33.7H31.7188C33.531 33.7 35 32.2855 35 30.5406V16.5118L20.7033 26.4558C19.7449 27.1219 18.6225 27.4556 17.5 27.4556ZM33.7429 10.7255C33.1379 10.2688 32.5644 9.83895 31.7188 9.2242V6.31891C31.7188 4.57402 30.2497 3.15956 28.4375 3.15956H23.1362C22.9284 3.01475 22.735 2.87916 22.5183 2.72778C21.3691 1.92017 19.0859 -0.0228339 17.5 0.000203079C15.9141 -0.0228339 13.6315 1.92017 12.4817 2.72778C12.265 2.87916 12.0716 3.01475 11.8638 3.15956H6.5625C4.75029 3.15956 3.28125 4.57402 3.28125 6.31891V9.2242C2.43564 9.8383 1.86211 10.2688 1.25713 10.7255C0.865538 11.021 0.548868 11.3984 0.331074 11.8291C0.11328 12.2598 6.73891e-05 12.7325 0 13.2116L0 13.9125L6.5625 18.4772V6.31891H28.4375V18.4772L35 13.9125V13.2116C35 12.2414 34.5365 11.3245 33.7429 10.7255Z" fill="#D9D9D9"/>
</svg>
