<svg width="36" height="35" viewBox="0 0 36 35" fill="none" xmlns="http://www.w3.org/2000/svg">
<path d="M10.631 1.81189L13.9123 9.18389C14.0524 9.49871 14.0821 9.8489 13.997 10.1814C13.9119 10.514 13.7166 10.8108 13.4407 11.0269L9.29801 14.2916C11.807 19.4153 16.0895 23.5388 21.4108 25.9545L24.8015 21.9658C25.0264 21.7006 25.3346 21.5129 25.6798 21.431C26.025 21.3491 26.3885 21.3774 26.7156 21.5116M10.631 1.81189C10.4773 1.47252 10.2054 1.19544 9.86222 1.02842C9.51904 0.861401 9.12609 0.814914 8.75112 0.896976M10.631 1.81189L10.1756 2.01821L13.4555 9.38715L13.9096 9.18513L13.4556 9.38721C13.55 9.59958 13.5697 9.83448 13.5127 10.0575C13.4555 10.2808 13.3235 10.4836 13.1324 10.6332L13.1312 10.6342L8.98852 13.8989L8.67137 14.1489L8.84895 14.5115C11.4103 19.7422 15.7799 23.9473 21.2041 26.4098L21.5475 26.5657L21.7918 26.2784L25.1825 22.2896L25.1829 22.2891C25.3372 22.1071 25.5515 21.9753 25.7952 21.9175C26.039 21.8597 26.2957 21.8798 26.5256 21.9741L26.5249 21.9738L26.7156 21.5116M10.631 1.81189L10.1742 2.01521L10.175 2.01685C10.0705 1.78708 9.88408 1.59513 9.64342 1.478C9.40217 1.3606 9.12429 1.3273 8.8587 1.38527L8.85958 1.38507L8.75112 0.896976M8.75112 0.896976L1.64162 2.47669C1.28011 2.55707 0.95757 2.75306 0.726642 3.03267C0.495713 3.31229 0.370034 3.65901 0.370117 4.01625C0.370117 20.8994 14.5823 34.5574 32.0894 34.5574C32.4606 34.5576 32.8208 34.4367 33.1114 34.2143C33.4019 33.992 33.6055 33.6813 33.6891 33.3331M8.75112 0.896976L8.85802 1.38542L1.75015 2.96477L1.64173 2.47719L1.75008 2.96479C1.49474 3.02157 1.27059 3.15924 1.11216 3.35107C0.954037 3.54253 0.870061 3.77705 0.870117 4.01614L0.870117 4.01625C0.870117 20.6054 14.8401 34.0574 32.0894 34.0574H32.0897C32.3526 34.0576 32.6056 33.9718 32.8075 33.8173C33.009 33.663 33.1467 33.4504 33.2028 33.2165M33.6891 33.3331L35.3297 26.4877M33.6891 33.3331L33.2028 33.2166L33.2028 33.2165M33.6891 33.3331L33.2028 33.2165M35.3297 26.4877C35.4144 26.1249 35.3651 25.745 35.1903 25.4134C35.0155 25.0819 34.7261 24.8193 34.372 24.671M35.3297 26.4877L34.8428 26.374L33.2028 33.2165M35.3297 26.4877L34.8435 26.3711L34.8431 26.3727C34.8998 26.1283 34.8668 25.872 34.748 25.6466C34.6288 25.4206 34.4293 25.2374 34.1798 25.1326L34.1813 25.1332L34.372 24.671M34.372 24.671L26.7156 21.5116M34.372 24.671L34.1788 25.1322L26.5258 21.9742L26.7156 21.5116" fill="#D9D9D9" stroke="#0A4175"/>
</svg>
