<svg width="35" height="35" viewBox="0 0 35 35" fill="none" xmlns="http://www.w3.org/2000/svg">
<path d="M12.0313 15.0739H22.9688C23.573 15.0739 24.0625 14.6026 24.0625 14.0207V12.9676C24.0625 12.3858 23.573 11.9145 22.9688 11.9145H12.0313C11.427 11.9145 10.9375 12.3858 10.9375 12.9676V14.0207C10.9375 14.6026 11.427 15.0739 12.0313 15.0739ZM10.9375 20.3394C10.9375 20.9213 11.427 21.3926 12.0313 21.3926H22.9688C23.573 21.3926 24.0625 20.9213 24.0625 20.3394V19.2863C24.0625 18.7045 23.573 18.2332 22.9688 18.2332H12.0313C11.427 18.2332 10.9375 18.7045 10.9375 19.2863V20.3394ZM17.5 28.3122C16.3775 28.3122 15.2551 27.9792 14.2967 27.3124L0 17.3683V31.3972C0 33.1421 1.46904 34.5565 3.28125 34.5565H31.7188C33.531 34.5565 35 33.1421 35 31.3972V17.3683L20.7033 27.3124C19.7449 27.9785 18.6225 28.3122 17.5 28.3122ZM33.7429 11.5821C33.1379 11.1253 32.5644 10.6955 31.7188 10.0808V7.17548C31.7188 5.43059 30.2497 4.01612 28.4375 4.01612H23.1362C22.9284 3.87132 22.735 3.73573 22.5183 3.58435C21.3691 2.77674 19.0859 0.833734 17.5 0.85677C15.9141 0.833734 13.6315 2.77674 12.4817 3.58435C12.265 3.73573 12.0716 3.87132 11.8638 4.01612H6.5625C4.75029 4.01612 3.28125 5.43059 3.28125 7.17548V10.0808C2.43564 10.6949 1.86211 11.1253 1.25713 11.5821C0.865538 11.8776 0.548868 12.255 0.331074 12.6857C0.11328 13.1164 6.73891e-05 13.5891 0 14.0681L0 14.7691L6.5625 19.3337V7.17548H28.4375V19.3337L35 14.7691V14.0681C35 13.0979 34.5365 12.1811 33.7429 11.5821Z" fill="#D9D9D9"/>
</svg>
