<svg width="36" height="34" viewBox="0 0 36 34" fill="none" xmlns="http://www.w3.org/2000/svg">
<path d="M16.0716 33.2941C2.82832 19.4298 0.370117 18.0069 0.370117 12.9115C0.370117 5.93202 8.2051 0.274048 17.8701 0.274048C27.5351 0.274048 35.3701 5.93202 35.3701 12.9115C35.3701 18.0069 32.9119 19.4298 19.6686 33.2941C18.7995 34.2007 16.9406 34.2006 16.0716 33.2941ZM17.8701 18.1772C21.8972 18.1772 25.1618 15.8197 25.1618 12.9115C25.1618 10.0034 21.8972 7.64591 17.8701 7.64591C13.843 7.64591 10.5785 10.0034 10.5785 12.9115C10.5785 15.8197 13.843 18.1772 17.8701 18.1772Z" fill="#D9D9D9"/>
</svg>
