<svg width="36" height="35" viewBox="0 0 36 35" fill="none" xmlns="http://www.w3.org/2000/svg">
<path d="M10.631 1.81104L13.9123 9.18304C14.0524 9.49786 14.0821 9.84805 13.997 10.1806C13.9119 10.5131 13.7166 10.8099 13.4407 11.026L9.29801 14.2908C11.807 19.4145 16.0895 23.5379 21.4108 25.9537L24.8015 21.9649C25.0264 21.6997 25.3346 21.5121 25.6798 21.4301C26.025 21.3482 26.3885 21.3765 26.7156 21.5107M10.631 1.81104C10.4773 1.47167 10.2054 1.19459 9.86222 1.02757C9.51904 0.860546 9.12609 0.81406 8.75112 0.896122M10.631 1.81104L10.1756 2.01736L13.4555 9.38629L13.9096 9.18428L13.4556 9.38636C13.55 9.59873 13.5697 9.83362 13.5127 10.0566C13.4555 10.2799 13.3235 10.4827 13.1324 10.6324L13.1312 10.6333L8.98852 13.8981L8.67137 14.148L8.84895 14.5107C11.4103 19.7413 15.7799 23.9465 21.2041 26.409L21.5475 26.5649L21.7918 26.2775L25.1825 22.2887L25.1829 22.2883C25.3372 22.1062 25.5515 21.9745 25.7952 21.9166C26.039 21.8588 26.2957 21.8789 26.5256 21.9732L26.5249 21.9729L26.7156 21.5107M10.631 1.81104L10.1742 2.01436L10.175 2.016C10.0705 1.78622 9.88408 1.59428 9.64342 1.47715C9.40217 1.35974 9.12429 1.32645 8.8587 1.38441L8.85958 1.38422L8.75112 0.896122M8.75112 0.896122L1.64162 2.47584C1.28011 2.55622 0.95757 2.75221 0.726642 3.03182C0.495713 3.31143 0.370034 3.65815 0.370117 4.0154C0.370117 20.8986 14.5823 34.5565 32.0894 34.5565C32.4606 34.5568 32.8208 34.4358 33.1114 34.2135C33.4019 33.9911 33.6055 33.6805 33.6891 33.3323M8.75112 0.896122L8.85802 1.38456L1.75015 2.96392L1.64173 2.47633L1.75008 2.96393C1.49474 3.02072 1.27059 3.15838 1.11216 3.35021C0.954037 3.54167 0.870061 3.77619 0.870117 4.01528L0.870117 4.0154C0.870117 20.6045 14.8401 34.0565 32.0894 34.0565H32.0897C32.3526 34.0567 32.6056 33.9709 32.8075 33.8164C33.009 33.6622 33.1467 33.4496 33.2028 33.2156M33.6891 33.3323L35.3297 26.4868M33.6891 33.3323L33.2028 33.2157L33.2028 33.2156M33.6891 33.3323L33.2028 33.2156M35.3297 26.4868C35.4144 26.124 35.3651 25.7442 35.1903 25.4126C35.0155 25.081 34.7261 24.8185 34.372 24.6702M35.3297 26.4868L34.8428 26.3732L33.2028 33.2156M35.3297 26.4868L34.8435 26.3703L34.8431 26.3718C34.8998 26.1275 34.8668 25.8712 34.748 25.6458C34.6288 25.4198 34.4293 25.2365 34.1798 25.1318L34.1813 25.1324L34.372 24.6702M34.372 24.6702L26.7156 21.5107M34.372 24.6702L34.1788 25.1313L26.5258 21.9733L26.7156 21.5107" fill="#D9D9D9" stroke="#0A4175"/>
</svg>
