<svg width="23" height="20" viewBox="0 0 23 20" fill="none" xmlns="http://www.w3.org/2000/svg">
<path d="M1.28125 3.51562H21.5938C22.0252 3.51562 22.375 3.16587 22.375 2.73438V0.78125C22.375 0.349756 22.0252 0 21.5938 0H1.28125C0.849756 0 0.5 0.349756 0.5 0.78125V2.73438C0.5 3.16587 0.849756 3.51562 1.28125 3.51562ZM1.28125 11.3281H21.5938C22.0252 11.3281 22.375 10.9784 22.375 10.5469V8.59375C22.375 8.16226 22.0252 7.8125 21.5938 7.8125H1.28125C0.849756 7.8125 0.5 8.16226 0.5 8.59375V10.5469C0.5 10.9784 0.849756 11.3281 1.28125 11.3281ZM1.28125 19.1406H21.5938C22.0252 19.1406 22.375 18.7909 22.375 18.3594V16.4062C22.375 15.9748 22.0252 15.625 21.5938 15.625H1.28125C0.849756 15.625 0.5 15.9748 0.5 16.4062V18.3594C0.5 18.7909 0.849756 19.1406 1.28125 19.1406Z" fill="white"/>
</svg>
