<svg width="35" height="34" viewBox="0 0 35 34" fill="none" xmlns="http://www.w3.org/2000/svg">
<path d="M15.7015 33.02C2.4582 19.1557 0 17.7328 0 12.6375C0 5.65797 7.83498 0 17.5 0C27.165 0 35 5.65797 35 12.6375C35 17.7328 32.5418 19.1557 19.2985 33.02C18.4294 33.9266 16.5705 33.9266 15.7015 33.02ZM17.5 17.9031C21.5271 17.9031 24.7917 15.5456 24.7917 12.6375C24.7917 9.72935 21.5271 7.37187 17.5 7.37187C13.4729 7.37187 10.2083 9.72935 10.2083 12.6375C10.2083 15.5456 13.4729 17.9031 17.5 17.9031Z" fill="#D9D9D9"/>
</svg>
