<svg width="35" height="35" viewBox="0 0 35 35" fill="none" xmlns="http://www.w3.org/2000/svg">
<path d="M15.7015 33.8766C2.4582 20.0123 0 18.5894 0 13.4941C0 6.51454 7.83498 0.856567 17.5 0.856567C27.165 0.856567 35 6.51454 35 13.4941C35 18.5894 32.5418 20.0123 19.2985 33.8766C18.4294 34.7832 16.5705 34.7831 15.7015 33.8766ZM17.5 18.7597C21.5271 18.7597 24.7917 16.4022 24.7917 13.4941C24.7917 10.5859 21.5271 8.22843 17.5 8.22843C13.4729 8.22843 10.2083 10.5859 10.2083 13.4941C10.2083 16.4022 13.4729 18.7597 17.5 18.7597Z" fill="#D9D9D9"/>
</svg>
