<svg width="35" height="34" viewBox="0 0 35 34" fill="none" xmlns="http://www.w3.org/2000/svg">
<path d="M13.5422 8.32647C13.6823 8.64129 13.712 8.99148 13.6269 9.32403C13.5418 9.65657 13.3465 9.95336 13.0705 10.1695L8.92789 13.4342C11.4369 18.5579 15.7193 22.6813 21.0407 25.0971L24.4314 21.1083C24.6562 20.8432 24.9645 20.6555 25.3097 20.5736C25.6549 20.4917 26.0184 20.5199 26.3455 20.6542M13.5422 8.32647L10.2609 0.954472M13.5422 8.32647L13.0854 8.52979L13.0854 8.52973M13.5422 8.32647L13.0854 8.52973M10.2609 0.954472C10.1072 0.615102 9.83529 0.338018 9.4921 0.170999C9.14892 0.00397901 8.75597 -0.0425078 8.381 0.0395542M10.2609 0.954472L9.80547 1.16079L13.0854 8.52973M10.2609 0.954472L9.80413 1.15779L9.80486 1.15943C9.70038 0.929657 9.51397 0.737711 9.2733 0.620582C9.03206 0.503174 8.75417 0.46988 8.48858 0.527845L8.48946 0.52765L8.381 0.0395542M8.381 0.0395542L1.27151 1.61927M8.381 0.0395542L8.4879 0.527994L1.38003 2.10735L1.27151 1.61927M1.27151 1.61927C0.909995 1.69965 0.587453 1.89564 0.356524 2.17525C0.125596 2.45486 -8.32775e-05 2.80159 0 3.15883C0 20.042 14.2122 33.7 31.7193 33.7C32.0904 33.7002 32.4507 33.5793 32.7412 33.3569C33.0318 33.1345 33.2354 32.8239 33.3189 32.4757M1.27151 1.61927L1.37996 2.10736C1.12463 2.16415 0.900474 2.30181 0.742043 2.49365C0.58392 2.6851 0.499944 2.91963 0.5 3.15871L0.5 3.15883C0.5 19.7479 14.47 33.2 31.7193 33.2H31.7196C31.9825 33.2001 32.2355 33.1143 32.4374 32.9598C32.6389 32.8056 32.7766 32.593 32.8327 32.3591M33.3189 32.4757L34.9596 25.6303M33.3189 32.4757L32.8327 32.3592L32.8327 32.3591M33.3189 32.4757L32.8327 32.3591M34.9596 25.6303C35.0443 25.2675 34.995 24.8876 34.8202 24.556C34.6454 24.2245 34.356 23.9619 34.0019 23.8136M34.9596 25.6303L34.4727 25.5166L32.8327 32.3591M34.9596 25.6303L34.4734 25.5137L34.473 25.5153C34.5297 25.2709 34.4967 25.0146 34.3779 24.7892C34.2588 24.5633 34.0593 24.3801 33.8099 24.2753L33.8111 24.2758L34.0019 23.8136M34.0019 23.8136L26.3455 20.6542M34.0019 23.8136L33.8087 24.2748L26.1557 21.1167L26.3455 20.6542M26.3455 20.6542L26.1548 21.1164L26.1555 21.1167C25.9256 21.0224 25.6689 21.0022 25.4251 21.0601C25.1814 21.1179 24.9671 21.2496 24.8127 21.4317L24.8123 21.4322L21.4217 25.4209L21.1774 25.7083L20.834 25.5524C15.4098 23.0899 11.0402 18.8848 8.47884 13.6541L8.30125 13.2914L8.6184 13.0415L12.7611 9.77676L12.7623 9.77581C12.9534 9.62617 13.0854 9.42333 13.1425 9.20006C13.1996 8.97703 13.1799 8.74211 13.0854 8.52973" fill="#D9D9D9" stroke="#0A4175"/>
</svg>
