<svg width="36" height="35" viewBox="0 0 36 35" fill="none" xmlns="http://www.w3.org/2000/svg">
<path d="M12.4014 15.0739H23.3389C23.9432 15.0739 24.4326 14.6026 24.4326 14.0207V12.9676C24.4326 12.3858 23.9432 11.9145 23.3389 11.9145H12.4014C11.7971 11.9145 11.3076 12.3858 11.3076 12.9676V14.0207C11.3076 14.6026 11.7971 15.0739 12.4014 15.0739ZM11.3076 20.3394C11.3076 20.9213 11.7971 21.3926 12.4014 21.3926H23.3389C23.9432 21.3926 24.4326 20.9213 24.4326 20.3394V19.2863C24.4326 18.7045 23.9432 18.2332 23.3389 18.2332H12.4014C11.7971 18.2332 11.3076 18.7045 11.3076 19.2863V20.3394ZM17.8701 28.3122C16.7477 28.3122 15.6252 27.9792 14.6668 27.3124L0.370117 17.3683V31.3972C0.370117 33.1421 1.83916 34.5565 3.65137 34.5565H32.0889C33.9011 34.5565 35.3701 33.1421 35.3701 31.3972V17.3683L21.0734 27.3124C20.115 27.9785 18.9926 28.3122 17.8701 28.3122ZM34.113 11.5821C33.508 11.1253 32.9345 10.6955 32.0889 10.0808V7.17548C32.0889 5.43059 30.6198 4.01612 28.8076 4.01612H23.5063C23.2985 3.87132 23.1051 3.73573 22.8884 3.58435C21.7393 2.77674 19.4561 0.833734 17.8701 0.85677C16.2842 0.833734 14.0017 2.77674 12.8519 3.58435C12.6352 3.73573 12.4417 3.87132 12.2339 4.01612H6.93262C5.12041 4.01612 3.65137 5.43059 3.65137 7.17548V10.0808C2.80576 10.6949 2.23223 11.1253 1.62725 11.5821C1.23566 11.8776 0.918985 12.255 0.701191 12.6857C0.483397 13.1164 0.370185 13.5891 0.370117 14.0681L0.370117 14.7691L6.93262 19.3337V7.17548H28.8076V19.3337L35.3701 14.7691V14.0681C35.3701 13.0979 34.9066 12.1811 34.113 11.5821Z" fill="#D9D9D9"/>
</svg>
