<svg width="36" height="34" viewBox="0 0 36 34" fill="none" xmlns="http://www.w3.org/2000/svg">
<path d="M10.631 1.22852L13.9123 8.60052C14.0524 8.91534 14.0821 9.26553 13.997 9.59807C13.9119 9.93062 13.7166 10.2274 13.4407 10.4435L9.29801 13.7083C11.807 18.832 16.0895 22.9554 21.4108 25.3712L24.8015 21.3824C25.0264 21.1172 25.3346 20.9295 25.6798 20.8476C26.025 20.7657 26.3885 20.794 26.7156 20.9282M10.631 1.22852C10.4773 0.88915 10.2054 0.612066 9.86222 0.445047C9.51904 0.278027 9.12609 0.23154 8.75112 0.313602M10.631 1.22852L10.1756 1.43484L13.4555 8.80377L13.9096 8.60176L13.4556 8.80384C13.55 9.01621 13.5697 9.2511 13.5127 9.4741C13.4555 9.69738 13.3235 9.90022 13.1324 10.0499L13.1312 10.0508L8.98852 13.3156L8.67137 13.5655L8.84895 13.9282C11.4103 19.1588 15.7799 23.364 21.2041 25.8264L21.5475 25.9823L21.7918 25.695L25.1825 21.7062L25.1829 21.7058C25.3372 21.5237 25.5515 21.392 25.7952 21.3341C26.039 21.2763 26.2957 21.2964 26.5256 21.3907L26.5249 21.3904L26.7156 20.9282M10.631 1.22852L10.1742 1.43184L10.175 1.43348C10.0705 1.2037 9.88408 1.01176 9.64342 0.89463C9.40217 0.777222 9.12429 0.743928 8.8587 0.801893L8.85958 0.801698L8.75112 0.313602M8.75112 0.313602L1.64162 1.89332C1.28011 1.9737 0.95757 2.16969 0.726642 2.4493C0.495713 2.72891 0.370034 3.07563 0.370117 3.43288C0.370117 20.3161 14.5823 33.974 32.0894 33.974C32.4606 33.9742 32.8208 33.8533 33.1114 33.6309C33.4019 33.4086 33.6055 33.0979 33.6891 32.7497M8.75112 0.313602L8.85802 0.802042L1.75015 2.3814L1.64173 1.89381L1.75008 2.38141C1.49474 2.4382 1.27059 2.57586 1.11216 2.76769C0.954037 2.95915 0.870061 3.19367 0.870117 3.43276L0.870117 3.43288C0.870117 20.022 14.8401 33.474 32.0894 33.474H32.0897C32.3526 33.4742 32.6056 33.3884 32.8075 33.2339C33.009 33.0796 33.1467 32.8671 33.2028 32.6331M33.6891 32.7497L35.3297 25.9043M33.6891 32.7497L33.2028 32.6332L33.2028 32.6331M33.6891 32.7497L33.2028 32.6331M35.3297 25.9043C35.4144 25.5415 35.3651 25.1616 35.1903 24.8301C35.0155 24.4985 34.7261 24.236 34.372 24.0876M35.3297 25.9043L34.8428 25.7907L33.2028 32.6331M35.3297 25.9043L34.8435 25.7878L34.8431 25.7893C34.8998 25.5449 34.8668 25.2887 34.748 25.0632C34.6288 24.8373 34.4293 24.654 34.1798 24.5492L34.1813 24.5498L34.372 24.0876M34.372 24.0876L26.7156 20.9282M34.372 24.0876L34.1788 24.5488L26.5258 21.3908L26.7156 20.9282" fill="#D9D9D9" stroke="#0A4175"/>
</svg>
