<svg width="36" height="35" viewBox="0 0 36 35" fill="none" xmlns="http://www.w3.org/2000/svg">
<path d="M16.0716 33.8766C2.82832 20.0123 0.370117 18.5894 0.370117 13.4941C0.370117 6.51454 8.2051 0.856567 17.8701 0.856567C27.5351 0.856567 35.3701 6.51454 35.3701 13.4941C35.3701 18.5894 32.9119 20.0123 19.6686 33.8766C18.7995 34.7832 16.9406 34.7831 16.0716 33.8766ZM17.8701 18.7597C21.8972 18.7597 25.1618 16.4022 25.1618 13.4941C25.1618 10.5859 21.8972 8.22843 17.8701 8.22843C13.843 8.22843 10.5785 10.5859 10.5785 13.4941C10.5785 16.4022 13.843 18.7597 17.8701 18.7597Z" fill="#D9D9D9"/>
</svg>
