<svg width="36" height="35" viewBox="0 0 36 35" fill="none" xmlns="http://www.w3.org/2000/svg">
<path d="M12.4014 15.0747H23.3389C23.9432 15.0747 24.4326 14.6034 24.4326 14.0216V12.9685C24.4326 12.3866 23.9432 11.9154 23.3389 11.9154H12.4014C11.7971 11.9154 11.3076 12.3866 11.3076 12.9685V14.0216C11.3076 14.6034 11.7971 15.0747 12.4014 15.0747ZM11.3076 20.3403C11.3076 20.9221 11.7971 21.3934 12.4014 21.3934H23.3389C23.9432 21.3934 24.4326 20.9221 24.4326 20.3403V19.2872C24.4326 18.7053 23.9432 18.2341 23.3389 18.2341H12.4014C11.7971 18.2341 11.3076 18.7053 11.3076 19.2872V20.3403ZM17.8701 28.3131C16.7477 28.3131 15.6252 27.98 14.6668 27.3133L0.370117 17.3692V31.398C0.370117 33.1429 1.83916 34.5574 3.65137 34.5574H32.0889C33.9011 34.5574 35.3701 33.1429 35.3701 31.398V17.3692L21.0734 27.3133C20.115 27.9794 18.9926 28.3131 17.8701 28.3131ZM34.113 11.583C33.508 11.1262 32.9345 10.6964 32.0889 10.0816V7.17633C32.0889 5.43145 30.6198 4.01698 28.8076 4.01698H23.5063C23.2985 3.87217 23.1051 3.73659 22.8884 3.5852C21.7393 2.77759 19.4561 0.834588 17.8701 0.857625C16.2842 0.834588 14.0017 2.77759 12.8519 3.5852C12.6352 3.73659 12.4417 3.87217 12.2339 4.01698H6.93262C5.12041 4.01698 3.65137 5.43145 3.65137 7.17633V10.0816C2.80576 10.6957 2.23223 11.1262 1.62725 11.583C1.23566 11.8785 0.918985 12.2558 0.701191 12.6865C0.483397 13.1172 0.370185 13.59 0.370117 14.069L0.370117 14.77L6.93262 19.3346V7.17633H28.8076V19.3346L35.3701 14.77V14.069C35.3701 13.0988 34.9066 12.1819 34.113 11.583Z" fill="#D9D9D9"/>
</svg>
